<svg width="20" height="19" viewBox="0 0 20 19" fill="none" xmlns="http://www.w3.org/2000/svg">
<path fill-rule="evenodd" clip-rule="evenodd" d="M13.949 5.78003L8.775 10.9601L6.051 8.2301C5.99732 8.1721 5.9325 8.12548 5.86039 8.09314C5.78828 8.0608 5.71037 8.04338 5.63135 8.04187C5.55234 8.04036 5.47384 8.05478 5.40055 8.08435C5.32726 8.11392 5.26069 8.15795 5.20484 8.21387C5.14899 8.26978 5.10501 8.33646 5.07554 8.40979C5.04606 8.48312 5.03167 8.56161 5.03327 8.64062C5.03487 8.71964 5.05241 8.79756 5.08484 8.86963C5.11727 8.9417 5.16392 9.00645 5.22199 9.06006L8.35999 12.2001C8.47041 12.3091 8.61935 12.3702 8.77451 12.3702C8.92967 12.3702 9.07858 12.3091 9.189 12.2001L14.777 6.61011C14.8315 6.55574 14.8748 6.49113 14.9043 6.42004C14.9338 6.34896 14.9491 6.27278 14.9492 6.1958C14.9493 6.11882 14.9342 6.04259 14.9049 5.97144C14.8755 5.90028 14.8324 5.8355 14.778 5.78101C14.7237 5.72651 14.6591 5.68335 14.588 5.65381C14.5169 5.62426 14.4407 5.60898 14.3637 5.60889C14.2867 5.60879 14.2105 5.62383 14.1393 5.6532C14.0682 5.68257 14.0035 5.72566 13.949 5.78003Z" fill="#FE3E57"/>
</svg>
